{"accessors" : [{"bufferView" : 0, "byteOffset" : 0, "componentType" : 5123, "count" : 792, "type" : "SCALAR", "max" : [691], "min" : [0]}, {"bufferView" : 1, "byteOffset" : 0, "componentType" : 5126, "count" : 692, "type" : "VEC3", "max" : [30.1025390625, 2.216981472737806E-15, 36.2060546875], "min" : [2.9052734375, -15, -0.48828125], "name" : "POSITION"}, {"bufferView" : 1, "byteOffset" : 12, "componentType" : 5126, "count" : 692, "type" : "VEC3", "max" : [1.0000044107437134, 1.0000044107437134, 0.9989965558052063], "min" : [-0.9993084073066711, -1.0000044107437134, -0.9994120597839355], "name" : "NORMAL"}, {"bufferView" : 0, "byteOffset" : 1584, "componentType" : 5123, "count" : 60, "type" : "SCALAR", "max" : [50], "min" : [0]}, {"bufferView" : 2, "byteOffset" : 0, "componentType" : 5126, "count" : 51, "type" : "VEC3", "max" : [26.5380859375, 2.18558789061372E-15, 35.693359375], "min" : [4.4921875, -15, 0], "name" : "POSITION"}, {"bufferView" : 2, "byteOffset" : 12, "componentType" : 5126, "count" : 51, "type" : "VEC3", "max" : [1.0000044107437134, 1.0000044107437134, 1.0000044107437134], "min" : [-1.0000044107437134, -1.0000044107437134, -1.0000044107437134], "name" : "NORMAL"}, {"bufferView" : 0, "byteOffset" : 1704, "componentType" : 5123, "count" : 132, "type" : "SCALAR", "max" : [109], "min" : [0]}, {"bufferView" : 3, "byteOffset" : 0, "componentType" : 5126, "count" : 110, "type" : "VEC3", "max" : [17.8466796875, 2.18558789061372E-15, 35.693359375], "min" : [1.611328125, -15, 0], "name" : "POSITION"}, {"bufferView" : 3, "byteOffset" : 12, "componentType" : 5126, "count" : 110, "type" : "VEC3", "max" : [1.0000044107437134, 1.0000044107437134, 1.0000044107437134], "min" : [-1.0000044107437134, -1.0000044107437134, -1.0000044107437134], "name" : "NORMAL"}, {"bufferView" : 0, "byteOffset" : 1968, "componentType" : 5123, "count" : 144, "type" : "SCALAR", "max" : [127], "min" : [0]}, {"bufferView" : 4, "byteOffset" : 0, "componentType" : 5126, "count" : 128, "type" : "VEC3", "max" : [33.203125, 2.18558789061372E-15, 35.693359375], "min" : [4.4921875, -15, 0], "name" : "POSITION"}, {"bufferView" : 4, "byteOffset" : 12, "componentType" : 5126, "count" : 128, "type" : "VEC3", "max" : [1.0000044107437134, 1.0000044107437134, 1.0000044107437134], "min" : [-1.0000044107437134, -1.0000044107437134, -1.0000044107437134], "name" : "NORMAL"}, {"bufferView" : 0, "byteOffset" : 2256, "componentType" : 5123, "count" : 2709, "type" : "SCALAR", "max" : [2589], "min" : [0]}, {"bufferView" : 5, "byteOffset" : 0, "componentType" : 5126, "count" : 2590, "type" : "VEC3", "max" : [3.7709999084472656, 68.32099914550781, 21.184999465942383], "min" : [-148.2270050048828, 0, -31.777000427246094], "name" : "POSITION"}, {"bufferView" : 5, "byteOffset" : 12, "componentType" : 5126, "count" : 2590, "type" : "VEC3", "max" : [1.0000042915344238, 1.0000042915344238, 1.0000042915344238], "min" : [-1.0000042915344238, -1.0000042915344238, -1.0000042915344238], "name" : "NORMAL"}, {"bufferView" : 0, "byteOffset" : 7676, "componentType" : 5123, "count" : 72, "type" : "SCALAR", "max" : [70], "min" : [0]}, {"bufferView" : 6, "byteOffset" : 0, "componentType" : 5126, "count" : 71, "type" : "VEC3", "max" : [31.79400062561035, 99.99199676513672, 21.184999465942383], "min" : [4.085000038146973, 73.48200225830078, -31.777000427246094], "name" : "POSITION"}, {"bufferView" : 6, "byteOffset" : 12, "componentType" : 5126, "count" : 71, "type" : "VEC3", "max" : [1.0000042915344238, 1.0000042915344238, 1.0000042915344238], "min" : [-1.0000042915344238, -1.0000042915344238, -1.0000042915344238], "name" : "NORMAL"}, {"bufferView" : 0, "byteOffset" : 7820, "componentType" : 5123, "count" : 1200, "type" : "SCALAR", "max" : [1149], "min" : [0]}, {"bufferView" : 7, "byteOffset" : 0, "componentType" : 5126, "count" : 1150, "type" : "VEC3", "max" : [-0.7039999961853027, 99.99199676513672, 21.184999465942383], "min" : [-119.8270034790039, 73.70099639892578, -31.777000427246094], "name" : "POSITION"}, {"bufferView" : 7, "byteOffset" : 12, "componentType" : 5126, "count" : 1150, "type" : "VEC3", "max" : [1.0000042915344238, 1.0000041723251343, 1.0000042915344238], "min" : [-1.0000042915344238, -1.0000041723251343, -1.0000042915344238], "name" : "NORMAL"}, {"bufferView" : 0, "byteOffset" : 10220, "componentType" : 5123, "count" : 288, "type" : "SCALAR", "max" : [281], "min" : [0]}, {"bufferView" : 8, "byteOffset" : 0, "componentType" : 5126, "count" : 282, "type" : "VEC3", "max" : [238.2689971923828, 99.99199676513672, 21.184999465942383], "min" : [91.4520034790039, 73.48200225830078, -31.777000427246094], "name" : "POSITION"}, {"bufferView" : 8, "byteOffset" : 12, "componentType" : 5126, "count" : 282, "type" : "VEC3", "max" : [1.0000042915344238, 1.0000042915344238, 1.0000042915344238], "min" : [-1.0000042915344238, -1.0000042915344238, -1.0000042915344238], "name" : "NORMAL"}, {"bufferView" : 0, "byteOffset" : 10796, "componentType" : 5123, "count" : 4656, "type" : "SCALAR", "max" : [4433], "min" : [0]}, {"bufferView" : 9, "byteOffset" : 0, "componentType" : 5126, "count" : 4434, "type" : "VEC3", "max" : [238.2689971923828, 71.9739990234375, 21.184999465942383], "min" : [4.085000038146973, 0, -31.777000427246094], "name" : "POSITION"}, {"bufferView" : 9, "byteOffset" : 12, "componentType" : 5126, "count" : 4434, "type" : "VEC3", "max" : [1.0000042915344238, 1.0000042915344238, 1.0000042915344238], "min" : [-1.0000042915344238, -1.0000042915344238, -1.0000042915344238], "name" : "NORMAL"}, {"bufferView" : 0, "byteOffset" : 20108, "componentType" : 5123, "count" : 456, "type" : "SCALAR", "max" : [426], "min" : [0]}, {"bufferView" : 10, "byteOffset" : 0, "componentType" : 5126, "count" : 427, "type" : "VEC3", "max" : [-120.41100311279297, 99.99199676513672, 21.184999465942383], "min" : [-238.2689971923828, 0, -31.777000427246094], "name" : "POSITION"}, {"bufferView" : 10, "byteOffset" : 12, "componentType" : 5126, "count" : 427, "type" : "VEC3", "max" : [1.0000038146972656, 1.0000042915344238, 1.0000042915344238], "min" : [-1.0000038146972656, -1.0000042915344238, -1.0000042915344238], "name" : "NORMAL"}, {"bufferView" : 0, "byteOffset" : 21020, "componentType" : 5123, "count" : 2709, "type" : "SCALAR", "max" : [2589], "min" : [0]}, {"bufferView" : 11, "byteOffset" : 0, "componentType" : 5126, "count" : 2590, "type" : "VEC3", "max" : [3.7709999084472656, 68.32099914550781, 31.777000427246094], "min" : [-148.2270050048828, 0, 21.184999465942383], "name" : "POSITION"}, {"bufferView" : 11, "byteOffset" : 12, "componentType" : 5126, "count" : 2590, "type" : "VEC3", "max" : [1.0000042915344238, 1.0000042915344238, 1.0000042915344238], "min" : [-1.0000042915344238, -1.0000042915344238, -1.0000042915344238], "name" : "NORMAL"}, {"bufferView" : 0, "byteOffset" : 26440, "componentType" : 5123, "count" : 72, "type" : "SCALAR", "max" : [70], "min" : [0]}, {"bufferView" : 12, "byteOffset" : 0, "componentType" : 5126, "count" : 71, "type" : "VEC3", "max" : [31.79400062561035, 99.99199676513672, 31.777000427246094], "min" : [4.085000038146973, 73.48200225830078, 21.184999465942383], "name" : "POSITION"}, {"bufferView" : 12, "byteOffset" : 12, "componentType" : 5126, "count" : 71, "type" : "VEC3", "max" : [1.0000042915344238, 1.0000042915344238, 1.0000042915344238], "min" : [-1.0000042915344238, -1.0000042915344238, -1.0000042915344238], "name" : "NORMAL"}, {"bufferView" : 0, "byteOffset" : 26584, "componentType" : 5123, "count" : 1200, "type" : "SCALAR", "max" : [1149], "min" : [0]}, {"bufferView" : 13, "byteOffset" : 0, "componentType" : 5126, "count" : 1150, "type" : "VEC3", "max" : [-0.7039999961853027, 99.99199676513672, 31.777000427246094], "min" : [-119.8270034790039, 73.70099639892578, 21.184999465942383], "name" : "POSITION"}, {"bufferView" : 13, "byteOffset" : 12, "componentType" : 5126, "count" : 1150, "type" : "VEC3", "max" : [1.0000042915344238, 1.0000041723251343, 1.0000042915344238], "min" : [-1.0000042915344238, -1.0000041723251343, -1.0000042915344238], "name" : "NORMAL"}, {"bufferView" : 0, "byteOffset" : 28984, "componentType" : 5123, "count" : 288, "type" : "SCALAR", "max" : [281], "min" : [0]}, {"bufferView" : 14, "byteOffset" : 0, "componentType" : 5126, "count" : 282, "type" : "VEC3", "max" : [238.2689971923828, 99.99199676513672, 31.777000427246094], "min" : [91.4520034790039, 73.48200225830078, 21.184999465942383], "name" : "POSITION"}, {"bufferView" : 14, "byteOffset" : 12, "componentType" : 5126, "count" : 282, "type" : "VEC3", "max" : [1.0000042915344238, 1.0000042915344238, 1.0000042915344238], "min" : [-1.0000042915344238, -1.0000042915344238, -1.0000042915344238], "name" : "NORMAL"}, {"bufferView" : 0, "byteOffset" : 29560, "componentType" : 5123, "count" : 4656, "type" : "SCALAR", "max" : [4437], "min" : [0]}, {"bufferView" : 15, "byteOffset" : 0, "componentType" : 5126, "count" : 4438, "type" : "VEC3", "max" : [238.2689971923828, 71.9739990234375, 31.777000427246094], "min" : [4.085000038146973, 0, 21.184999465942383], "name" : "POSITION"}, {"bufferView" : 15, "byteOffset" : 12, "componentType" : 5126, "count" : 4438, "type" : "VEC3", "max" : [1.0000042915344238, 1.0000042915344238, 1.0000042915344238], "min" : [-1.0000042915344238, -1.0000042915344238, -1.0000042915344238], "name" : "NORMAL"}, {"bufferView" : 0, "byteOffset" : 38872, "componentType" : 5123, "count" : 456, "type" : "SCALAR", "max" : [426], "min" : [0]}, {"bufferView" : 16, "byteOffset" : 0, "componentType" : 5126, "count" : 427, "type" : "VEC3", "max" : [-120.41100311279297, 99.99199676513672, 31.777000427246094], "min" : [-238.2689971923828, 0, 21.184999465942383], "name" : "POSITION"}, {"bufferView" : 16, "byteOffset" : 12, "componentType" : 5126, "count" : 427, "type" : "VEC3", "max" : [1.0000038146972656, 1.0000042915344238, 1.0000042915344238], "min" : [-1.0000038146972656, -1.0000042915344238, -1.0000042915344238], "name" : "NORMAL"}, {"bufferView" : 0, "byteOffset" : 39784, "componentType" : 5123, "count" : 2592, "type" : "SCALAR", "max" : [1835], "min" : [0]}, {"bufferView" : 17, "byteOffset" : 0, "componentType" : 5126, "count" : 1836, "type" : "VEC3", "max" : [12.428535461425781, 49.714141845703125, 99.42828369140625], "min" : [0, -37.285606384277344, -0.5717126727104187], "name" : "POSITION"}, {"bufferView" : 17, "byteOffset" : 12, "componentType" : 5126, "count" : 1836, "type" : "VEC3", "max" : [1.0000044107437134, 0.9999985694885254, 1.0000044107437134], "min" : [-1.0000044107437134, -0.9999985694885254, -1.0000044107437134], "name" : "NORMAL"}], "asset" : {"generator" : "Aspose.3D 21.11", "version" : "2.0"}, "buffers" : [{"uri" : "data:application/octet-stream;base64,", "byteLength" : 584608}], "bufferViews" : [{"buffer" : 0, "byteOffset" : 0, "byteLength" : 44968, "target" : 34963}, {"buffer" : 0, "byteOffset" : 44972, "byteLength" : 19008, "byteStride" : 24, "target" : 34962}, {"buffer" : 0, "byteOffset" : 63984, "byteLength" : 1440, "byteStride" : 24, "target" : 34962}, {"buffer" : 0, "byteOffset" : 65428, "byteLength" : 3168, "byteStride" : 24, "target" : 34962}, {"buffer" : 0, "byteOffset" : 68600, "byteLength" : 3456, "byteStride" : 24, "target" : 34962}, {"buffer" : 0, "byteOffset" : 72060, "byteLength" : 65016, "byteStride" : 24, "target" : 34962}, {"buffer" : 0, "byteOffset" : 137080, "byteLength" : 1728, "byteStride" : 24, "target" : 34962}, {"buffer" : 0, "byteOffset" : 138812, "byteLength" : 28800, "byteStride" : 24, "target" : 34962}, {"buffer" : 0, "byteOffset" : 167616, "byteLength" : 6912, "byteStride" : 24, "target" : 34962}, {"buffer" : 0, "byteOffset" : 174532, "byteLength" : 111744, "byteStride" : 24, "target" : 34962}, {"buffer" : 0, "byteOffset" : 286280, "byteLength" : 10944, "byteStride" : 24, "target" : 34962}, {"buffer" : 0, "byteOffset" : 297228, "byteLength" : 65016, "byteStride" : 24, "target" : 34962}, {"buffer" : 0, "byteOffset" : 362248, "byteLength" : 1728, "byteStride" : 24, "target" : 34962}, {"buffer" : 0, "byteOffset" : 363980, "byteLength" : 28800, "byteStride" : 24, "target" : 34962}, {"buffer" : 0, "byteOffset" : 392784, "byteLength" : 6912, "byteStride" : 24, "target" : 34962}, {"buffer" : 0, "byteOffset" : 399700, "byteLength" : 111744, "byteStride" : 24, "target" : 34962}, {"buffer" : 0, "byteOffset" : 511448, "byteLength" : 10944, "byteStride" : 24, "target" : 34962}, {"buffer" : 0, "byteOffset" : 522396, "byteLength" : 62208, "byteStride" : 24, "target" : 34962}], "materials" : [{"name" : "Kingdom", "pbrMetallicRoughness" : {"baseColorFactor" : [0, 0.5295232224172772, 1, 1], "metallicFactor" : 0, "roughnessFactor" : 0.2}, "emissiveFactor" : [0, 0, 0], "alphaMode" : "OPAQUE", "doubleSided" : false}, {"name" : "Kingdom", "pbrMetallicRoughness" : {"baseColorFactor" : [0, 0.5295232224172772, 1, 1], "metallicFactor" : 0, "roughnessFactor" : 0.2}, "emissiveFactor" : [0, 0, 0], "alphaMode" : "OPAQUE", "doubleSided" : false}, {"name" : "Kingdom", "pbrMetallicRoughness" : {"baseColorFactor" : [0, 0.5295232224172772, 1, 1], "metallicFactor" : 0, "roughnessFactor" : 0.2}, "emissiveFactor" : [0, 0, 0], "alphaMode" : "OPAQUE", "doubleSided" : false}, {"name" : "Kingdom", "pbrMetallicRoughness" : {"baseColorFactor" : [0, 0.5295232224172772, 1, 1], "metallicFactor" : 0, "roughnessFactor" : 0.2}, "emissiveFactor" : [0, 0, 0], "alphaMode" : "OPAQUE", "doubleSided" : false}, {"name" : "Kingdom", "pbrMetallicRoughness" : {"baseColorFactor" : [0, 0.5295232224172772, 1, 1], "metallicFactor" : 0, "roughnessFactor" : 0.2}, "emissiveFactor" : [0, 0, 0], "alphaMode" : "OPAQUE", "doubleSided" : false}, {"name" : "Lonely Road", "pbrMetallicRoughness" : {"baseColorFactor" : [0, 0.32499999999999996, 0.6079999999999999, 1], "metallicFactor" : 0, "roughnessFactor" : 0}, "emissiveFactor" : [0, 0, 0], "alphaMode" : "OPAQUE", "doubleSided" : false}, {"name" : "Flora", "pbrMetallicRoughness" : {"baseColorFactor" : [0, 0.32499999999999996, 0.6079999999999999, 1], "metallicFactor" : 0, "roughnessFactor" : 0}, "emissiveFactor" : [0, 0, 0], "alphaMode" : "OPAQUE", "doubleSided" : false}, {"name" : "Kathmandu", "pbrMetallicRoughness" : {"baseColorFactor" : [0, 0.32499999999999996, 0.6079999999999999, 1], "metallicFactor" : 0, "roughnessFactor" : 0}, "emissiveFactor" : [0, 0, 0], "alphaMode" : "OPAQUE", "doubleSided" : false}, {"name" : "Santana", "pbrMetallicRoughness" : {"baseColorFactor" : [0, 0.32499999999999996, 0.6079999999999999, 1], "metallicFactor" : 0, "roughnessFactor" : 0}, "emissiveFactor" : [0, 0, 0], "alphaMode" : "OPAQUE", "doubleSided" : false}, {"name" : "Dust Storm", "pbrMetallicRoughness" : {"baseColorFactor" : [0, 0.32499999999999996, 0.6079999999999999, 1], "metallicFactor" : 0, "roughnessFactor" : 0}, "emissiveFactor" : [0, 0, 0], "alphaMode" : "OPAQUE", "doubleSided" : false}, {"name" : "Veronica", "pbrMetallicRoughness" : {"baseColorFactor" : [0, 0.32499999999999996, 0.6079999999999999, 1], "metallicFactor" : 0, "roughnessFactor" : 0}, "emissiveFactor" : [0, 0, 0], "alphaMode" : "OPAQUE", "doubleSided" : false}, {"name" : "Diesel", "pbrMetallicRoughness" : {"baseColorFactor" : [0, 0.32499999999999996, 0.6079999999999999, 1], "metallicFactor" : 0, "roughnessFactor" : 0}, "emissiveFactor" : [0, 0, 0], "alphaMode" : "OPAQUE", "doubleSided" : false}, {"name" : "Scenario", "pbrMetallicRoughness" : {"baseColorFactor" : [0, 0.32499999999999996, 0.6079999999999999, 1], "metallicFactor" : 0, "roughnessFactor" : 0}, "emissiveFactor" : [0, 0, 0], "alphaMode" : "OPAQUE", "doubleSided" : false}, {"name" : "Light Aroma", "pbrMetallicRoughness" : {"baseColorFactor" : [0, 0.32499999999999996, 0.6079999999999999, 1], "metallicFactor" : 0, "roughnessFactor" : 0}, "emissiveFactor" : [0, 0, 0], "alphaMode" : "OPAQUE", "doubleSided" : false}, {"name" : "Vera", "pbrMetallicRoughness" : {"baseColorFactor" : [0, 0.32499999999999996, 0.6079999999999999, 1], "metallicFactor" : 0, "roughnessFactor" : 0}, "emissiveFactor" : [0, 0, 0], "alphaMode" : "OPAQUE", "doubleSided" : false}, {"name" : "Irish Beauty", "pbrMetallicRoughness" : {"baseColorFactor" : [0, 0.32499999999999996, 0.6079999999999999, 1], "metallicFactor" : 0, "roughnessFactor" : 0}, "emissiveFactor" : [0, 0, 0], "alphaMode" : "OPAQUE", "doubleSided" : false}, {"name" : "Haiti", "pbrMetallicRoughness" : {"baseColorFactor" : [0, 0.32499999999999996, 0.6079999999999999, 1], "metallicFactor" : 0, "roughnessFactor" : 0}, "emissiveFactor" : [0, 0, 0], "alphaMode" : "OPAQUE", "doubleSided" : false}, {"name" : "Pin material", "pbrMetallicRoughness" : {"baseColorFactor" : [0, 0.5295232224172772, 1, 1], "metallicFactor" : 0, "roughnessFactor" : 0.2}, "emissiveFactor" : [0, 0, 0], "alphaMode" : "OPAQUE", "doubleSided" : false}], "meshes" : [{"primitives" : [{"attributes" : {"POSITION" : 1, "NORMAL" : 2}, "indices" : 0, "material" : 0, "mode" : 4}]}, {"primitives" : [{"attributes" : {"POSITION" : 4, "NORMAL" : 5}, "indices" : 3, "material" : 1, "mode" : 4}]}, {"primitives" : [{"attributes" : {"POSITION" : 7, "NORMAL" : 8}, "indices" : 6, "material" : 2, "mode" : 4}]}, {"primitives" : [{"attributes" : {"POSITION" : 1, "NORMAL" : 2}, "indices" : 0, "material" : 3, "mode" : 4}]}, {"primitives" : [{"attributes" : {"POSITION" : 10, "NORMAL" : 11}, "indices" : 9, "material" : 4, "mode" : 4}]}, {"primitives" : [{"attributes" : {"POSITION" : 13, "NORMAL" : 14}, "indices" : 12, "material" : 5, "mode" : 4}]}, {"primitives" : [{"attributes" : {"POSITION" : 16, "NORMAL" : 17}, "indices" : 15, "material" : 6, "mode" : 4}]}, {"primitives" : [{"attributes" : {"POSITION" : 19, "NORMAL" : 20}, "indices" : 18, "material" : 7, "mode" : 4}]}, {"primitives" : [{"attributes" : {"POSITION" : 22, "NORMAL" : 23}, "indices" : 21, "material" : 8, "mode" : 4}]}, {"primitives" : [{"attributes" : {"POSITION" : 25, "NORMAL" : 26}, "indices" : 24, "material" : 9, "mode" : 4}]}, {"primitives" : [{"attributes" : {"POSITION" : 28, "NORMAL" : 29}, "indices" : 27, "material" : 10, "mode" : 4}]}, {"primitives" : [{"attributes" : {"POSITION" : 31, "NORMAL" : 32}, "indices" : 30, "material" : 11, "mode" : 4}]}, {"primitives" : [{"attributes" : {"POSITION" : 34, "NORMAL" : 35}, "indices" : 33, "material" : 12, "mode" : 4}]}, {"primitives" : [{"attributes" : {"POSITION" : 37, "NORMAL" : 38}, "indices" : 36, "material" : 13, "mode" : 4}]}, {"primitives" : [{"attributes" : {"POSITION" : 40, "NORMAL" : 41}, "indices" : 39, "material" : 14, "mode" : 4}]}, {"primitives" : [{"attributes" : {"POSITION" : 43, "NORMAL" : 44}, "indices" : 42, "material" : 15, "mode" : 4}]}, {"primitives" : [{"attributes" : {"POSITION" : 46, "NORMAL" : 47}, "indices" : 45, "material" : 16, "mode" : 4}]}, {"primitives" : [{"attributes" : {"POSITION" : 49, "NORMAL" : 50}, "indices" : 48, "material" : 17, "mode" : 4}]}], "nodes" : [{"matrix" : [0.0004999999999999999, -1.4204944070836853E-18, -1.163552708799513E-11, 0, -1.0594664154552057E-18, -0.0004999999999999994, 1.5514036832975365E-11, 0, -1.1635527087995163E-11, -1.551403683297534E-11, -0.0004999999999999993, 0, -0.03409790039062499, 1.1368683772161603E-16, -0.09147676917192, 1], "mesh" : 0, "name" : "3D Text - C"}, {"matrix" : [0.0004999999999999999, -1.4204944070836853E-18, -1.163552708799513E-11, 0, -1.0594664154552057E-18, -0.0004999999999999994, 1.5514036832975365E-11, 0, -1.1635527087995163E-11, -1.551403683297534E-11, -0.0004999999999999993, 0, -0.019760742187499996, 7.815970093361102E-17, -0.09147676950556079, 1], "mesh" : 1, "name" : "3D Text - L"}, {"matrix" : [0.0004999999999999999, -1.4204944070836853E-18, -1.163552708799513E-11, 0, -1.0594664154552057E-18, -0.0004999999999999994, 1.5514036832975365E-11, 0, -1.1635527087995163E-11, -1.551403683297534E-11, -0.0004999999999999993, 0, -0.007049560546874998, 2.842170943040401E-17, -0.09147676980136338, 1], "mesh" : 2, "name" : "3D Text - I"}, {"matrix" : [0.0004999999999999999, -1.4204944070836853E-18, -1.163552708799513E-11, 0, -1.0594664154552057E-18, -0.0004999999999999994, 1.5514036832975365E-11, 0, -1.1635527087995163E-11, -1.551403683297534E-11, -0.0004999999999999993, 0, 0.0017065429687499996, 1.4210854715202004E-17, -0.09147677000512713, 1], "mesh" : 3, "name" : "3D Text - C"}, {"matrix" : [0.0004999999999999999, -1.4204944070836853E-18, -1.163552708799513E-11, 0, -1.0594664154552057E-18, -0.0004999999999999994, 1.5514036832975365E-11, 0, -1.1635527087995163E-11, -1.551403683297534E-11, -0.0004999999999999993, 0, 0.016043701171874994, -2.1316282072803006E-17, -0.09147677033876793, 1], "mesh" : 4, "name" : "3D Text - K"}, {"mesh" : 5, "name" : "ID7"}, {"mesh" : 6, "name" : "ID7"}, {"mesh" : 7, "name" : "ID7"}, {"mesh" : 8, "name" : "ID7"}, {"mesh" : 9, "name" : "ID7"}, {"mesh" : 10, "name" : "ID7"}, {"mesh" : 11, "name" : "ID62"}, {"mesh" : 12, "name" : "ID62"}, {"mesh" : 13, "name" : "ID62"}, {"mesh" : 14, "name" : "ID62"}, {"mesh" : 15, "name" : "ID62"}, {"mesh" : 16, "name" : "ID62"}, {"children" : [5, 6, 7, 8, 9, 10, 11, 12, 13, 14, 15, 16], "matrix" : [0.0004, 0, 0, 0, 0, -0.00010352761804100821, -0.0003863703305156273, 0, 0, 0.0003863703305156273, -0.00010352761804100821, 0, 0, 0, 0, 1], "name" : "Project Name (1)"}, {"matrix" : [-1.1102230246251566E-19, -0.0005000000000000001, -8.726646070365212E-12, 0, -0.00025000000000000006, -1.1102230246251566E-19, 1.962615539765984E-20, 0, -1.962615622484045E-20, 4.363323035182606E-12, -0.0002500000000000002, 0, 0.001565619634897786, 0.007107133867851023, -0.05399119873643514, 1], "mesh" : 17, "name" : "Pin"}], "scene" : 0, "scenes" : [{"nodes" : [0, 1, 2, 3, 4, 17, 18]}]}