{"accessors" : [{"bufferView" : 0, "byteOffset" : 0, "componentType" : 5123, "count" : 852, "type" : "SCALAR", "max" : [746], "min" : [0]}, {"bufferView" : 1, "byteOffset" : 0, "componentType" : 5126, "count" : 747, "type" : "VEC3", "max" : [30.0537109375, 2.216981472737806E-15, 36.2060546875], "min" : [3.0517578125, -15, -0.48828125], "name" : "POSITION"}, {"bufferView" : 1, "byteOffset" : 12, "componentType" : 5126, "count" : 747, "type" : "VEC3", "max" : [1.0000044107437134, 1.0000044107437134, 0.9993472099304199], "min" : [-0.9992874264717102, -1.0000044107437134, -0.9999391436576843], "name" : "NORMAL"}, {"bufferView" : 0, "byteOffset" : 1704, "componentType" : 5123, "count" : 60, "type" : "SCALAR", "max" : [50], "min" : [0]}, {"bufferView" : 2, "byteOffset" : 0, "componentType" : 5126, "count" : 51, "type" : "VEC3", "max" : [24.951171875, 2.18558789061372E-15, 35.693359375], "min" : [4.8583984375, -15, 0], "name" : "POSITION"}, {"bufferView" : 2, "byteOffset" : 12, "componentType" : 5126, "count" : 51, "type" : "VEC3", "max" : [1.0000044107437134, 1.0000044107437134, 1.0000044107437134], "min" : [-1.0000044107437134, -1.0000044107437134, -1.0000044107437134], "name" : "NORMAL"}, {"bufferView" : 0, "byteOffset" : 1824, "componentType" : 5123, "count" : 132, "type" : "SCALAR", "max" : [111], "min" : [0]}, {"bufferView" : 3, "byteOffset" : 0, "componentType" : 5126, "count" : 112, "type" : "VEC3", "max" : [14.892578125, 2.18558789061372E-15, 35.693359375], "min" : [2.001953125, -15, 0], "name" : "POSITION"}, {"bufferView" : 3, "byteOffset" : 12, "componentType" : 5126, "count" : 112, "type" : "VEC3", "max" : [1.0000044107437134, 1.0000044107437134, 1.0000044107437134], "min" : [-1.0000044107437134, -1.0000044107437134, -1.0000044107437134], "name" : "NORMAL"}, {"bufferView" : 0, "byteOffset" : 2088, "componentType" : 5123, "count" : 144, "type" : "SCALAR", "max" : [126], "min" : [0]}, {"bufferView" : 4, "byteOffset" : 0, "componentType" : 5126, "count" : 127, "type" : "VEC3", "max" : [30.95703125, 2.18558789061372E-15, 35.693359375], "min" : [4.8583984375, -15, 0], "name" : "POSITION"}, {"bufferView" : 4, "byteOffset" : 12, "componentType" : 5126, "count" : 127, "type" : "VEC3", "max" : [1.0000044107437134, 1.0000044107437134, 1.0000044107437134], "min" : [-1.0000044107437134, -1.0000044107437134, -1.0000044107437134], "name" : "NORMAL"}, {"bufferView" : 0, "byteOffset" : 2376, "componentType" : 5123, "count" : 2709, "type" : "SCALAR", "max" : [2589], "min" : [0]}, {"bufferView" : 5, "byteOffset" : 0, "componentType" : 5126, "count" : 2590, "type" : "VEC3", "max" : [3.7709999084472656, 68.32099914550781, 21.184999465942383], "min" : [-148.2270050048828, 0, -31.777000427246094], "name" : "POSITION"}, {"bufferView" : 5, "byteOffset" : 12, "componentType" : 5126, "count" : 2590, "type" : "VEC3", "max" : [1.0000044107437134, 1.0000044107437134, 1.0000044107437134], "min" : [-1.0000044107437134, -1.0000044107437134, -1.0000044107437134], "name" : "NORMAL"}, {"bufferView" : 0, "byteOffset" : 7796, "componentType" : 5123, "count" : 72, "type" : "SCALAR", "max" : [70], "min" : [0]}, {"bufferView" : 6, "byteOffset" : 0, "componentType" : 5126, "count" : 71, "type" : "VEC3", "max" : [31.79400062561035, 99.99199676513672, 21.184999465942383], "min" : [4.085000038146973, 73.48200225830078, -31.777000427246094], "name" : "POSITION"}, {"bufferView" : 6, "byteOffset" : 12, "componentType" : 5126, "count" : 71, "type" : "VEC3", "max" : [1.0000044107437134, 1.0000044107437134, 1.0000044107437134], "min" : [-1.0000044107437134, -1.0000044107437134, -1.0000044107437134], "name" : "NORMAL"}, {"bufferView" : 0, "byteOffset" : 7940, "componentType" : 5123, "count" : 1200, "type" : "SCALAR", "max" : [1149], "min" : [0]}, {"bufferView" : 7, "byteOffset" : 0, "componentType" : 5126, "count" : 1150, "type" : "VEC3", "max" : [-0.7039999961853027, 99.99199676513672, 21.184999465942383], "min" : [-119.8270034790039, 73.70099639892578, -31.777000427246094], "name" : "POSITION"}, {"bufferView" : 7, "byteOffset" : 12, "componentType" : 5126, "count" : 1150, "type" : "VEC3", "max" : [1.0000044107437134, 1.0000042915344238, 1.0000044107437134], "min" : [-1.0000044107437134, -1.0000042915344238, -1.0000044107437134], "name" : "NORMAL"}, {"bufferView" : 0, "byteOffset" : 10340, "componentType" : 5123, "count" : 288, "type" : "SCALAR", "max" : [281], "min" : [0]}, {"bufferView" : 8, "byteOffset" : 0, "componentType" : 5126, "count" : 282, "type" : "VEC3", "max" : [238.2689971923828, 99.99199676513672, 21.184999465942383], "min" : [91.4520034790039, 73.48200225830078, -31.777000427246094], "name" : "POSITION"}, {"bufferView" : 8, "byteOffset" : 12, "componentType" : 5126, "count" : 282, "type" : "VEC3", "max" : [1.0000044107437134, 1.0000044107437134, 1.0000044107437134], "min" : [-1.0000044107437134, -1.0000044107437134, -1.0000044107437134], "name" : "NORMAL"}, {"bufferView" : 0, "byteOffset" : 10916, "componentType" : 5123, "count" : 4656, "type" : "SCALAR", "max" : [4433], "min" : [0]}, {"bufferView" : 9, "byteOffset" : 0, "componentType" : 5126, "count" : 4434, "type" : "VEC3", "max" : [238.2689971923828, 71.9739990234375, 21.184999465942383], "min" : [4.085000038146973, 0, -31.777000427246094], "name" : "POSITION"}, {"bufferView" : 9, "byteOffset" : 12, "componentType" : 5126, "count" : 4434, "type" : "VEC3", "max" : [1.0000044107437134, 1.0000044107437134, 1.0000044107437134], "min" : [-1.0000044107437134, -1.0000044107437134, -1.0000044107437134], "name" : "NORMAL"}, {"bufferView" : 0, "byteOffset" : 20228, "componentType" : 5123, "count" : 456, "type" : "SCALAR", "max" : [426], "min" : [0]}, {"bufferView" : 10, "byteOffset" : 0, "componentType" : 5126, "count" : 427, "type" : "VEC3", "max" : [-120.41100311279297, 99.99199676513672, 21.184999465942383], "min" : [-238.2689971923828, 0, -31.777000427246094], "name" : "POSITION"}, {"bufferView" : 10, "byteOffset" : 12, "componentType" : 5126, "count" : 427, "type" : "VEC3", "max" : [1.0000039339065552, 1.0000044107437134, 1.0000044107437134], "min" : [-1.0000039339065552, -1.0000044107437134, -1.0000044107437134], "name" : "NORMAL"}, {"bufferView" : 0, "byteOffset" : 21140, "componentType" : 5123, "count" : 2709, "type" : "SCALAR", "max" : [2589], "min" : [0]}, {"bufferView" : 11, "byteOffset" : 0, "componentType" : 5126, "count" : 2590, "type" : "VEC3", "max" : [3.7709999084472656, 68.32099914550781, 31.777000427246094], "min" : [-148.2270050048828, 0, 21.184999465942383], "name" : "POSITION"}, {"bufferView" : 11, "byteOffset" : 12, "componentType" : 5126, "count" : 2590, "type" : "VEC3", "max" : [1.0000044107437134, 1.0000044107437134, 1.0000044107437134], "min" : [-1.0000044107437134, -1.0000044107437134, -1.0000044107437134], "name" : "NORMAL"}, {"bufferView" : 0, "byteOffset" : 26560, "componentType" : 5123, "count" : 72, "type" : "SCALAR", "max" : [70], "min" : [0]}, {"bufferView" : 12, "byteOffset" : 0, "componentType" : 5126, "count" : 71, "type" : "VEC3", "max" : [31.79400062561035, 99.99199676513672, 31.777000427246094], "min" : [4.085000038146973, 73.48200225830078, 21.184999465942383], "name" : "POSITION"}, {"bufferView" : 12, "byteOffset" : 12, "componentType" : 5126, "count" : 71, "type" : "VEC3", "max" : [1.0000044107437134, 1.0000044107437134, 1.0000044107437134], "min" : [-1.0000044107437134, -1.0000044107437134, -1.0000044107437134], "name" : "NORMAL"}, {"bufferView" : 0, "byteOffset" : 26704, "componentType" : 5123, "count" : 1200, "type" : "SCALAR", "max" : [1149], "min" : [0]}, {"bufferView" : 13, "byteOffset" : 0, "componentType" : 5126, "count" : 1150, "type" : "VEC3", "max" : [-0.7039999961853027, 99.99199676513672, 31.777000427246094], "min" : [-119.8270034790039, 73.70099639892578, 21.184999465942383], "name" : "POSITION"}, {"bufferView" : 13, "byteOffset" : 12, "componentType" : 5126, "count" : 1150, "type" : "VEC3", "max" : [1.0000044107437134, 1.0000042915344238, 1.0000044107437134], "min" : [-1.0000044107437134, -1.0000042915344238, -1.0000044107437134], "name" : "NORMAL"}, {"bufferView" : 0, "byteOffset" : 29104, "componentType" : 5123, "count" : 288, "type" : "SCALAR", "max" : [281], "min" : [0]}, {"bufferView" : 14, "byteOffset" : 0, "componentType" : 5126, "count" : 282, "type" : "VEC3", "max" : [238.2689971923828, 99.99199676513672, 31.777000427246094], "min" : [91.4520034790039, 73.48200225830078, 21.184999465942383], "name" : "POSITION"}, {"bufferView" : 14, "byteOffset" : 12, "componentType" : 5126, "count" : 282, "type" : "VEC3", "max" : [1.0000044107437134, 1.0000044107437134, 1.0000044107437134], "min" : [-1.0000044107437134, -1.0000044107437134, -1.0000044107437134], "name" : "NORMAL"}, {"bufferView" : 0, "byteOffset" : 29680, "componentType" : 5123, "count" : 4656, "type" : "SCALAR", "max" : [4437], "min" : [0]}, {"bufferView" : 15, "byteOffset" : 0, "componentType" : 5126, "count" : 4438, "type" : "VEC3", "max" : [238.2689971923828, 71.9739990234375, 31.777000427246094], "min" : [4.085000038146973, 0, 21.184999465942383], "name" : "POSITION"}, {"bufferView" : 15, "byteOffset" : 12, "componentType" : 5126, "count" : 4438, "type" : "VEC3", "max" : [1.0000044107437134, 1.0000044107437134, 1.0000044107437134], "min" : [-1.0000044107437134, -1.0000044107437134, -1.0000044107437134], "name" : "NORMAL"}, {"bufferView" : 0, "byteOffset" : 38992, "componentType" : 5123, "count" : 456, "type" : "SCALAR", "max" : [426], "min" : [0]}, {"bufferView" : 16, "byteOffset" : 0, "componentType" : 5126, "count" : 427, "type" : "VEC3", "max" : [-120.41100311279297, 99.99199676513672, 31.777000427246094], "min" : [-238.2689971923828, 0, 21.184999465942383], "name" : "POSITION"}, {"bufferView" : 16, "byteOffset" : 12, "componentType" : 5126, "count" : 427, "type" : "VEC3", "max" : [1.0000039339065552, 1.0000044107437134, 1.0000044107437134], "min" : [-1.0000039339065552, -1.0000044107437134, -1.0000044107437134], "name" : "NORMAL"}, {"bufferView" : 0, "byteOffset" : 39904, "componentType" : 5123, "count" : 2592, "type" : "SCALAR", "max" : [1835], "min" : [0]}, {"bufferView" : 17, "byteOffset" : 0, "componentType" : 5126, "count" : 1836, "type" : "VEC3", "max" : [12.428535461425781, 49.714141845703125, 99.42828369140625], "min" : [0, -37.285606384277344, -0.5717126727104187], "name" : "POSITION"}, {"bufferView" : 17, "byteOffset" : 12, "componentType" : 5126, "count" : 1836, "type" : "VEC3", "max" : [1.0000042915344238, 0.9999984502792358, 1.0000042915344238], "min" : [-1.0000042915344238, -0.9999984502792358, -1.0000042915344238], "name" : "NORMAL"}, {"bufferView" : 0, "byteOffset" : 45088, "componentType" : 5123, "count" : 2592, "type" : "SCALAR", "max" : [1835], "min" : [0]}, {"bufferView" : 18, "byteOffset" : 0, "componentType" : 5126, "count" : 1836, "type" : "VEC3", "max" : [12.428535461425781, 49.714141845703125, 99.42828369140625], "min" : [0, -37.285606384277344, -0.5717126727104187], "name" : "POSITION"}, {"bufferView" : 18, "byteOffset" : 12, "componentType" : 5126, "count" : 1836, "type" : "VEC3", "max" : [1.0000042915344238, 0.9999984502792358, 1.0000042915344238], "min" : [-1.0000042915344238, -0.9999984502792358, -1.0000042915344238], "name" : "NORMAL"}], "asset" : {"generator" : "Aspose.3D 21.10", "version" : "2.0"}, "buffers" : [{"uri" : "data:application/octet-stream;base64,", "byteLength" : 653564}], "bufferViews" : [{"buffer" : 0, "byteOffset" : 0, "byteLength" : 50272, "target" : 34963}, {"buffer" : 0, "byteOffset" : 50276, "byteLength" : 20448, "byteStride" : 24, "target" : 34962}, {"buffer" : 0, "byteOffset" : 70728, "byteLength" : 1440, "byteStride" : 24, "target" : 34962}, {"buffer" : 0, "byteOffset" : 72172, "byteLength" : 3168, "byteStride" : 24, "target" : 34962}, {"buffer" : 0, "byteOffset" : 75344, "byteLength" : 3456, "byteStride" : 24, "target" : 34962}, {"buffer" : 0, "byteOffset" : 78804, "byteLength" : 65016, "byteStride" : 24, "target" : 34962}, {"buffer" : 0, "byteOffset" : 143824, "byteLength" : 1728, "byteStride" : 24, "target" : 34962}, {"buffer" : 0, "byteOffset" : 145556, "byteLength" : 28800, "byteStride" : 24, "target" : 34962}, {"buffer" : 0, "byteOffset" : 174360, "byteLength" : 6912, "byteStride" : 24, "target" : 34962}, {"buffer" : 0, "byteOffset" : 181276, "byteLength" : 111744, "byteStride" : 24, "target" : 34962}, {"buffer" : 0, "byteOffset" : 293024, "byteLength" : 10944, "byteStride" : 24, "target" : 34962}, {"buffer" : 0, "byteOffset" : 303972, "byteLength" : 65016, "byteStride" : 24, "target" : 34962}, {"buffer" : 0, "byteOffset" : 368992, "byteLength" : 1728, "byteStride" : 24, "target" : 34962}, {"buffer" : 0, "byteOffset" : 370724, "byteLength" : 28800, "byteStride" : 24, "target" : 34962}, {"buffer" : 0, "byteOffset" : 399528, "byteLength" : 6912, "byteStride" : 24, "target" : 34962}, {"buffer" : 0, "byteOffset" : 406444, "byteLength" : 111744, "byteStride" : 24, "target" : 34962}, {"buffer" : 0, "byteOffset" : 518192, "byteLength" : 10944, "byteStride" : 24, "target" : 34962}, {"buffer" : 0, "byteOffset" : 529140, "byteLength" : 62208, "byteStride" : 24, "target" : 34962}, {"buffer" : 0, "byteOffset" : 591352, "byteLength" : 62208, "byteStride" : 24, "target" : 34962}], "materials" : [{"name" : "3D Text material", "pbrMetallicRoughness" : {"baseColorFactor" : [0.30212549635885283, 0.35865390592619895, 0.04145189161146246, 1], "metallicFactor" : 0, "roughnessFactor" : 0.2}, "emissiveFactor" : [0, 0, 0], "alphaMode" : "OPAQUE", "doubleSided" : false}, {"name" : "3D Text material", "pbrMetallicRoughness" : {"baseColorFactor" : [0.30212549635885283, 0.35865390592619895, 0.04145189161146246, 1], "metallicFactor" : 0, "roughnessFactor" : 0.2}, "emissiveFactor" : [0, 0, 0], "alphaMode" : "OPAQUE", "doubleSided" : false}, {"name" : "3D Text material", "pbrMetallicRoughness" : {"baseColorFactor" : [0.30212549635885283, 0.35865390592619895, 0.04145189161146246, 1], "metallicFactor" : 0, "roughnessFactor" : 0.2}, "emissiveFactor" : [0, 0, 0], "alphaMode" : "OPAQUE", "doubleSided" : false}, {"name" : "3D Text material", "pbrMetallicRoughness" : {"baseColorFactor" : [0.30212549635885283, 0.35865390592619895, 0.04145189161146246, 1], "metallicFactor" : 0, "roughnessFactor" : 0.2}, "emissiveFactor" : [0, 0, 0], "alphaMode" : "OPAQUE", "doubleSided" : false}, {"name" : "3D Text material", "pbrMetallicRoughness" : {"baseColorFactor" : [0.30212549635885283, 0.35865390592619895, 0.04145189161146246, 1], "metallicFactor" : 0, "roughnessFactor" : 0.2}, "emissiveFactor" : [0, 0, 0], "alphaMode" : "OPAQUE", "doubleSided" : false}, {"name" : "Material 1", "pbrMetallicRoughness" : {"baseColorFactor" : [0, 0.08464151072542946, 0.33445780792388924, 1], "metallicFactor" : 0, "roughnessFactor" : 0.2}, "emissiveFactor" : [0, 0, 0], "alphaMode" : "OPAQUE", "doubleSided" : true}, {"name" : "Material 2", "pbrMetallicRoughness" : {"baseColorFactor" : [0, 0.08464151072542946, 0.33445780792388924, 1], "metallicFactor" : 0, "roughnessFactor" : 0.2}, "emissiveFactor" : [0, 0, 0], "alphaMode" : "OPAQUE", "doubleSided" : true}, {"name" : "Material 3", "pbrMetallicRoughness" : {"baseColorFactor" : [0, 0.08464151072542946, 0.33445780792388924, 1], "metallicFactor" : 0, "roughnessFactor" : 0.2}, "emissiveFactor" : [0, 0, 0], "alphaMode" : "OPAQUE", "doubleSided" : true}, {"name" : "Material 4", "pbrMetallicRoughness" : {"baseColorFactor" : [0, 0.08464151072542946, 0.33445780792388924, 1], "metallicFactor" : 0, "roughnessFactor" : 0.2}, "emissiveFactor" : [0, 0, 0], "alphaMode" : "OPAQUE", "doubleSided" : true}, {"name" : "Material 5", "pbrMetallicRoughness" : {"baseColorFactor" : [0, 0.08464151072542946, 0.33445780792388924, 1], "metallicFactor" : 0, "roughnessFactor" : 0.2}, "emissiveFactor" : [0, 0, 0], "alphaMode" : "OPAQUE", "doubleSided" : true}, {"name" : "Material 6", "pbrMetallicRoughness" : {"baseColorFactor" : [0, 0.08464151072542946, 0.33445780792388924, 1], "metallicFactor" : 0, "roughnessFactor" : 0.2}, "emissiveFactor" : [0, 0, 0], "alphaMode" : "OPAQUE", "doubleSided" : true}, {"name" : "Material 7", "pbrMetallicRoughness" : {"baseColorFactor" : [0, 0.08464151072542946, 0.33445780792388924, 1], "metallicFactor" : 0, "roughnessFactor" : 0.2}, "emissiveFactor" : [0, 0, 0], "alphaMode" : "OPAQUE", "doubleSided" : true}, {"name" : "Material 8", "pbrMetallicRoughness" : {"baseColorFactor" : [0, 0.08464151072542946, 0.33445780792388924, 1], "metallicFactor" : 0, "roughnessFactor" : 0.2}, "emissiveFactor" : [0, 0, 0], "alphaMode" : "OPAQUE", "doubleSided" : true}, {"name" : "Material 9", "pbrMetallicRoughness" : {"baseColorFactor" : [0, 0.08464151072542946, 0.33445780792388924, 1], "metallicFactor" : 0, "roughnessFactor" : 0.2}, "emissiveFactor" : [0, 0, 0], "alphaMode" : "OPAQUE", "doubleSided" : true}, {"name" : "Material 10", "pbrMetallicRoughness" : {"baseColorFactor" : [0, 0.08464151072542946, 0.33445780792388924, 1], "metallicFactor" : 0, "roughnessFactor" : 0.2}, "emissiveFactor" : [0, 0, 0], "alphaMode" : "OPAQUE", "doubleSided" : true}, {"name" : "Material 11", "pbrMetallicRoughness" : {"baseColorFactor" : [0, 0.08464151072542946, 0.33445780792388924, 1], "metallicFactor" : 0, "roughnessFactor" : 0.2}, "emissiveFactor" : [0, 0, 0], "alphaMode" : "OPAQUE", "doubleSided" : true}, {"name" : "Material 12", "pbrMetallicRoughness" : {"baseColorFactor" : [0, 0.08464151072542946, 0.33445780792388924, 1], "metallicFactor" : 0, "roughnessFactor" : 0.2}, "emissiveFactor" : [0, 0, 0], "alphaMode" : "OPAQUE", "doubleSided" : true}, {"name" : "Pin material", "pbrMetallicRoughness" : {"baseColorFactor" : [0.7154654323350483, 0.7154654323350483, 0.7154654323350483, 1], "metallicFactor" : 0, "roughnessFactor" : 0.2}, "emissiveFactor" : [0, 0, 0], "alphaMode" : "OPAQUE", "doubleSided" : false}, {"name" : "Pin material 1", "pbrMetallicRoughness" : {"baseColorFactor" : [0.7154654323350483, 0.7154654323350483, 0.7154654323350483, 1], "metallicFactor" : 0, "roughnessFactor" : 0.2}, "emissiveFactor" : [0, 0, 0], "alphaMode" : "OPAQUE", "doubleSided" : false}], "meshes" : [{"primitives" : [{"attributes" : {"POSITION" : 1, "NORMAL" : 2}, "indices" : 0, "material" : 0, "mode" : 4}]}, {"primitives" : [{"attributes" : {"POSITION" : 4, "NORMAL" : 5}, "indices" : 3, "material" : 1, "mode" : 4}]}, {"primitives" : [{"attributes" : {"POSITION" : 7, "NORMAL" : 8}, "indices" : 6, "material" : 2, "mode" : 4}]}, {"primitives" : [{"attributes" : {"POSITION" : 1, "NORMAL" : 2}, "indices" : 0, "material" : 3, "mode" : 4}]}, {"primitives" : [{"attributes" : {"POSITION" : 10, "NORMAL" : 11}, "indices" : 9, "material" : 4, "mode" : 4}]}, {"primitives" : [{"attributes" : {"POSITION" : 13, "NORMAL" : 14}, "indices" : 12, "material" : 5, "mode" : 4}]}, {"primitives" : [{"attributes" : {"POSITION" : 16, "NORMAL" : 17}, "indices" : 15, "material" : 6, "mode" : 4}]}, {"primitives" : [{"attributes" : {"POSITION" : 19, "NORMAL" : 20}, "indices" : 18, "material" : 7, "mode" : 4}]}, {"primitives" : [{"attributes" : {"POSITION" : 22, "NORMAL" : 23}, "indices" : 21, "material" : 8, "mode" : 4}]}, {"primitives" : [{"attributes" : {"POSITION" : 25, "NORMAL" : 26}, "indices" : 24, "material" : 9, "mode" : 4}]}, {"primitives" : [{"attributes" : {"POSITION" : 28, "NORMAL" : 29}, "indices" : 27, "material" : 10, "mode" : 4}]}, {"primitives" : [{"attributes" : {"POSITION" : 31, "NORMAL" : 32}, "indices" : 30, "material" : 11, "mode" : 4}]}, {"primitives" : [{"attributes" : {"POSITION" : 34, "NORMAL" : 35}, "indices" : 33, "material" : 12, "mode" : 4}]}, {"primitives" : [{"attributes" : {"POSITION" : 37, "NORMAL" : 38}, "indices" : 36, "material" : 13, "mode" : 4}]}, {"primitives" : [{"attributes" : {"POSITION" : 40, "NORMAL" : 41}, "indices" : 39, "material" : 14, "mode" : 4}]}, {"primitives" : [{"attributes" : {"POSITION" : 43, "NORMAL" : 44}, "indices" : 42, "material" : 15, "mode" : 4}]}, {"primitives" : [{"attributes" : {"POSITION" : 46, "NORMAL" : 47}, "indices" : 45, "material" : 16, "mode" : 4}]}, {"primitives" : [{"attributes" : {"POSITION" : 49, "NORMAL" : 50}, "indices" : 48, "material" : 17, "mode" : 4}]}, {"primitives" : [{"attributes" : {"POSITION" : 52, "NORMAL" : 53}, "indices" : 51, "material" : 18, "mode" : 4}]}], "nodes" : [{"matrix" : [0.0003, 0, 0, 0, 0, -0.0006, -2.6645352591003755E-19, 0, 0, 1.3322676295501877E-19, -0.0003, 0, -0.0194549560546875, -5.3290705182007515E-18, 0.018932053466578523, 1], "mesh" : 0, "name" : "3D Text - C"}, {"matrix" : [0.0003, 0, 0, 0, 0, -0.0006, -2.6645352591003755E-19, 0, 0, 1.3322676295501877E-19, -0.0003, 0, -0.0109251708984375, -5.3290705182007515E-18, 0.018932053466578523, 1], "mesh" : 1, "name" : "3D Text - L"}, {"matrix" : [0.0003, 0, 0, 0, 0, -0.0006, -2.6645352591003755E-19, 0, 0, 1.3322676295501877E-19, -0.0003, 0, -0.0038521728515625003, -5.3290705182007515E-18, 0.018932053466578523, 1], "mesh" : 2, "name" : "3D Text - I"}, {"matrix" : [0.0003, 0, 0, 0, 0, -0.0006, -2.6645352591003755E-19, 0, 0, 1.3322676295501877E-19, -0.0003, 0, 0.0007225341796875001, -5.3290705182007515E-18, 0.018932053466578523, 1], "mesh" : 3, "name" : "3D Text - C"}, {"matrix" : [0.0003, 0, 0, 0, 0, -0.0006, -2.6645352591003755E-19, 0, 0, 1.3322676295501877E-19, -0.0003, 0, 0.0092523193359375, -5.3290705182007515E-18, 0.018932053466578523, 1], "mesh" : 4, "name" : "3D Text - K"}, {"matrix" : [10, 0, 0, 0, 0, 2.220446049250313E-15, 10, 0, 0, -10, 2.220446049250313E-15, 0, 0, 0, 0, 1], "mesh" : 5, "name" : "Model"}, {"matrix" : [10, 0, 0, 0, 0, 2.220446049250313E-15, 10, 0, 0, -10, 2.220446049250313E-15, 0, 0, 0, 0, 1], "mesh" : 6, "name" : "Model"}, {"matrix" : [10, 0, 0, 0, 0, 2.220446049250313E-15, 10, 0, 0, -10, 2.220446049250313E-15, 0, 0, 0, 0, 1], "mesh" : 7, "name" : "Model"}, {"matrix" : [10, 0, 0, 0, 0, 2.220446049250313E-15, 10, 0, 0, -10, 2.220446049250313E-15, 0, 0, 0, 0, 1], "mesh" : 8, "name" : "Model"}, {"matrix" : [10, 0, 0, 0, 0, 2.220446049250313E-15, 10, 0, 0, -10, 2.220446049250313E-15, 0, 0, 0, 0, 1], "mesh" : 9, "name" : "Model"}, {"matrix" : [10, 0, 0, 0, 0, 2.220446049250313E-15, 10, 0, 0, -10, 2.220446049250313E-15, 0, 0, 0, 0, 1], "mesh" : 10, "name" : "Model"}, {"matrix" : [10, 0, 0, 0, 0, 2.220446049250313E-15, 10, 0, 0, -10, 2.220446049250313E-15, 0, 0, 0, 0, 1], "mesh" : 11, "name" : "Model"}, {"matrix" : [10, 0, 0, 0, 0, 2.220446049250313E-15, 10, 0, 0, -10, 2.220446049250313E-15, 0, 0, 0, 0, 1], "mesh" : 12, "name" : "Model"}, {"matrix" : [10, 0, 0, 0, 0, 2.220446049250313E-15, 10, 0, 0, -10, 2.220446049250313E-15, 0, 0, 0, 0, 1], "mesh" : 13, "name" : "Model"}, {"matrix" : [10, 0, 0, 0, 0, 2.220446049250313E-15, 10, 0, 0, -10, 2.220446049250313E-15, 0, 0, 0, 0, 1], "mesh" : 14, "name" : "Model"}, {"matrix" : [10, 0, 0, 0, 0, 2.220446049250313E-15, 10, 0, 0, -10, 2.220446049250313E-15, 0, 0, 0, 0, 1], "mesh" : 15, "name" : "Model"}, {"matrix" : [10, 0, 0, 0, 0, 2.220446049250313E-15, 10, 0, 0, -10, 2.220446049250313E-15, 0, 0, 0, 0, 1], "mesh" : 16, "name" : "Model"}, {"children" : [5, 6, 7, 8, 9, 10, 11, 12, 13, 14, 15, 16], "matrix" : [3.0000000000000004E-05, 0, 0, 0, 0, -2.999999999999999E-05, -1.6653345369377347E-20, 0, 0, 1.6653345369377347E-20, -2.999999999999999E-05, 0, 0, -1.9721522630525296E-34, -4.379057701015053E-50, 1], "name" : "Project Name (1)"}, {"matrix" : [2.664535259100375E-19, -0.0005999999999999998, -3.3306690738754687E-19, 0, 0, 7.993605777301125E-20, -0.00017999999999999996, 0, -0.0002999999999999999, -4.996003610813203E-20, 0, 0, -0.10028585633635526, 0.006214267730712883, -0.013135719680786131, 1], "mesh" : 17, "name" : "Pin 1"}, {"matrix" : [1.3322676295501875E-19, -0.0005999999999999998, -2.664535259100375E-19, 0, 3.9968028886505626E-20, 7.993605777301125E-20, -0.00017999999999999996, 0, 0.0002999999999999999, 6.661338147750937E-20, 6.661338147750937E-20, 0, 0.10028585633635521, 0.006214267730712883, -0.013135719680786131, 1], "mesh" : 18, "name" : "Pin"}], "scene" : 0, "scenes" : [{"nodes" : [0, 1, 2, 3, 4, 17, 18, 19]}]}