{"accessors" : [{"bufferView" : 0, "byteOffset" : 0, "componentType" : 5123, "count" : 2709, "type" : "SCALAR", "max" : [2589], "min" : [0]}, {"bufferView" : 1, "byteOffset" : 0, "componentType" : 5126, "count" : 2590, "type" : "VEC3", "max" : [3.7709999084472656, 68.32099914550781, 21.184999465942383], "min" : [-148.2270050048828, 0, -31.777000427246094], "name" : "POSITION"}, {"bufferView" : 1, "byteOffset" : 12, "componentType" : 5126, "count" : 2590, "type" : "VEC3", "max" : [1.0000042915344238, 1.0000042915344238, 1.0000042915344238], "min" : [-1.0000042915344238, -1.0000042915344238, -1.0000042915344238], "name" : "NORMAL"}, {"bufferView" : 0, "byteOffset" : 5420, "componentType" : 5123, "count" : 72, "type" : "SCALAR", "max" : [70], "min" : [0]}, {"bufferView" : 2, "byteOffset" : 0, "componentType" : 5126, "count" : 71, "type" : "VEC3", "max" : [31.79400062561035, 99.99199676513672, 21.184999465942383], "min" : [4.085000038146973, 73.48200225830078, -31.777000427246094], "name" : "POSITION"}, {"bufferView" : 2, "byteOffset" : 12, "componentType" : 5126, "count" : 71, "type" : "VEC3", "max" : [1.0000042915344238, 1.0000042915344238, 1.0000042915344238], "min" : [-1.0000042915344238, -1.0000042915344238, -1.0000042915344238], "name" : "NORMAL"}, {"bufferView" : 0, "byteOffset" : 5564, "componentType" : 5123, "count" : 1200, "type" : "SCALAR", "max" : [1149], "min" : [0]}, {"bufferView" : 3, "byteOffset" : 0, "componentType" : 5126, "count" : 1150, "type" : "VEC3", "max" : [-0.7039999961853027, 99.99199676513672, 21.184999465942383], "min" : [-119.8270034790039, 73.70099639892578, -31.777000427246094], "name" : "POSITION"}, {"bufferView" : 3, "byteOffset" : 12, "componentType" : 5126, "count" : 1150, "type" : "VEC3", "max" : [1.0000042915344238, 1.0000041723251343, 1.0000042915344238], "min" : [-1.0000042915344238, -1.0000041723251343, -1.0000042915344238], "name" : "NORMAL"}, {"bufferView" : 0, "byteOffset" : 7964, "componentType" : 5123, "count" : 288, "type" : "SCALAR", "max" : [281], "min" : [0]}, {"bufferView" : 4, "byteOffset" : 0, "componentType" : 5126, "count" : 282, "type" : "VEC3", "max" : [238.2689971923828, 99.99199676513672, 21.184999465942383], "min" : [91.4520034790039, 73.48200225830078, -31.777000427246094], "name" : "POSITION"}, {"bufferView" : 4, "byteOffset" : 12, "componentType" : 5126, "count" : 282, "type" : "VEC3", "max" : [1.0000042915344238, 1.0000042915344238, 1.0000042915344238], "min" : [-1.0000042915344238, -1.0000042915344238, -1.0000042915344238], "name" : "NORMAL"}, {"bufferView" : 0, "byteOffset" : 8540, "componentType" : 5123, "count" : 4656, "type" : "SCALAR", "max" : [4433], "min" : [0]}, {"bufferView" : 5, "byteOffset" : 0, "componentType" : 5126, "count" : 4434, "type" : "VEC3", "max" : [238.2689971923828, 71.9739990234375, 21.184999465942383], "min" : [4.085000038146973, 0, -31.777000427246094], "name" : "POSITION"}, {"bufferView" : 5, "byteOffset" : 12, "componentType" : 5126, "count" : 4434, "type" : "VEC3", "max" : [1.0000042915344238, 1.0000042915344238, 1.0000042915344238], "min" : [-1.0000042915344238, -1.0000042915344238, -1.0000042915344238], "name" : "NORMAL"}, {"bufferView" : 0, "byteOffset" : 17852, "componentType" : 5123, "count" : 456, "type" : "SCALAR", "max" : [426], "min" : [0]}, {"bufferView" : 6, "byteOffset" : 0, "componentType" : 5126, "count" : 427, "type" : "VEC3", "max" : [-120.41100311279297, 99.99199676513672, 21.184999465942383], "min" : [-238.2689971923828, 0, -31.777000427246094], "name" : "POSITION"}, {"bufferView" : 6, "byteOffset" : 12, "componentType" : 5126, "count" : 427, "type" : "VEC3", "max" : [1.0000038146972656, 1.0000042915344238, 1.0000042915344238], "min" : [-1.0000038146972656, -1.0000042915344238, -1.0000042915344238], "name" : "NORMAL"}, {"bufferView" : 0, "byteOffset" : 18764, "componentType" : 5123, "count" : 2709, "type" : "SCALAR", "max" : [2589], "min" : [0]}, {"bufferView" : 7, "byteOffset" : 0, "componentType" : 5126, "count" : 2590, "type" : "VEC3", "max" : [3.7709999084472656, 68.32099914550781, 31.777000427246094], "min" : [-148.2270050048828, 0, 21.184999465942383], "name" : "POSITION"}, {"bufferView" : 7, "byteOffset" : 12, "componentType" : 5126, "count" : 2590, "type" : "VEC3", "max" : [1.0000042915344238, 1.0000042915344238, 1.0000042915344238], "min" : [-1.0000042915344238, -1.0000042915344238, -1.0000042915344238], "name" : "NORMAL"}, {"bufferView" : 0, "byteOffset" : 24184, "componentType" : 5123, "count" : 72, "type" : "SCALAR", "max" : [70], "min" : [0]}, {"bufferView" : 8, "byteOffset" : 0, "componentType" : 5126, "count" : 71, "type" : "VEC3", "max" : [31.79400062561035, 99.99199676513672, 31.777000427246094], "min" : [4.085000038146973, 73.48200225830078, 21.184999465942383], "name" : "POSITION"}, {"bufferView" : 8, "byteOffset" : 12, "componentType" : 5126, "count" : 71, "type" : "VEC3", "max" : [1.0000042915344238, 1.0000042915344238, 1.0000042915344238], "min" : [-1.0000042915344238, -1.0000042915344238, -1.0000042915344238], "name" : "NORMAL"}, {"bufferView" : 0, "byteOffset" : 24328, "componentType" : 5123, "count" : 1200, "type" : "SCALAR", "max" : [1149], "min" : [0]}, {"bufferView" : 9, "byteOffset" : 0, "componentType" : 5126, "count" : 1150, "type" : "VEC3", "max" : [-0.7039999961853027, 99.99199676513672, 31.777000427246094], "min" : [-119.8270034790039, 73.70099639892578, 21.184999465942383], "name" : "POSITION"}, {"bufferView" : 9, "byteOffset" : 12, "componentType" : 5126, "count" : 1150, "type" : "VEC3", "max" : [1.0000042915344238, 1.0000041723251343, 1.0000042915344238], "min" : [-1.0000042915344238, -1.0000041723251343, -1.0000042915344238], "name" : "NORMAL"}, {"bufferView" : 0, "byteOffset" : 26728, "componentType" : 5123, "count" : 288, "type" : "SCALAR", "max" : [281], "min" : [0]}, {"bufferView" : 10, "byteOffset" : 0, "componentType" : 5126, "count" : 282, "type" : "VEC3", "max" : [238.2689971923828, 99.99199676513672, 31.777000427246094], "min" : [91.4520034790039, 73.48200225830078, 21.184999465942383], "name" : "POSITION"}, {"bufferView" : 10, "byteOffset" : 12, "componentType" : 5126, "count" : 282, "type" : "VEC3", "max" : [1.0000042915344238, 1.0000042915344238, 1.0000042915344238], "min" : [-1.0000042915344238, -1.0000042915344238, -1.0000042915344238], "name" : "NORMAL"}, {"bufferView" : 0, "byteOffset" : 27304, "componentType" : 5123, "count" : 4656, "type" : "SCALAR", "max" : [4437], "min" : [0]}, {"bufferView" : 11, "byteOffset" : 0, "componentType" : 5126, "count" : 4438, "type" : "VEC3", "max" : [238.2689971923828, 71.9739990234375, 31.777000427246094], "min" : [4.085000038146973, 0, 21.184999465942383], "name" : "POSITION"}, {"bufferView" : 11, "byteOffset" : 12, "componentType" : 5126, "count" : 4438, "type" : "VEC3", "max" : [1.0000042915344238, 1.0000042915344238, 1.0000042915344238], "min" : [-1.0000042915344238, -1.0000042915344238, -1.0000042915344238], "name" : "NORMAL"}, {"bufferView" : 0, "byteOffset" : 36616, "componentType" : 5123, "count" : 456, "type" : "SCALAR", "max" : [426], "min" : [0]}, {"bufferView" : 12, "byteOffset" : 0, "componentType" : 5126, "count" : 427, "type" : "VEC3", "max" : [-120.41100311279297, 99.99199676513672, 31.777000427246094], "min" : [-238.2689971923828, 0, 21.184999465942383], "name" : "POSITION"}, {"bufferView" : 12, "byteOffset" : 12, "componentType" : 5126, "count" : 427, "type" : "VEC3", "max" : [1.0000038146972656, 1.0000042915344238, 1.0000042915344238], "min" : [-1.0000038146972656, -1.0000042915344238, -1.0000042915344238], "name" : "NORMAL"}], "asset" : {"generator" : "Aspose.3D 21.11", "version" : "2.0"}, "buffers" : [{"uri" : "data:application/octet-stream;base64,", "byteLength" : 487868}], "bufferViews" : [{"buffer" : 0, "byteOffset" : 0, "byteLength" : 37528, "target" : 34963}, {"buffer" : 0, "byteOffset" : 37532, "byteLength" : 65016, "byteStride" : 24, "target" : 34962}, {"buffer" : 0, "byteOffset" : 102552, "byteLength" : 1728, "byteStride" : 24, "target" : 34962}, {"buffer" : 0, "byteOffset" : 104284, "byteLength" : 28800, "byteStride" : 24, "target" : 34962}, {"buffer" : 0, "byteOffset" : 133088, "byteLength" : 6912, "byteStride" : 24, "target" : 34962}, {"buffer" : 0, "byteOffset" : 140004, "byteLength" : 111744, "byteStride" : 24, "target" : 34962}, {"buffer" : 0, "byteOffset" : 251752, "byteLength" : 10944, "byteStride" : 24, "target" : 34962}, {"buffer" : 0, "byteOffset" : 262700, "byteLength" : 65016, "byteStride" : 24, "target" : 34962}, {"buffer" : 0, "byteOffset" : 327720, "byteLength" : 1728, "byteStride" : 24, "target" : 34962}, {"buffer" : 0, "byteOffset" : 329452, "byteLength" : 28800, "byteStride" : 24, "target" : 34962}, {"buffer" : 0, "byteOffset" : 358256, "byteLength" : 6912, "byteStride" : 24, "target" : 34962}, {"buffer" : 0, "byteOffset" : 365172, "byteLength" : 111744, "byteStride" : 24, "target" : 34962}, {"buffer" : 0, "byteOffset" : 476920, "byteLength" : 10944, "byteStride" : 24, "target" : 34962}], "materials" : [{"name" : "Lonely Road", "pbrMetallicRoughness" : {"baseColorFactor" : [0, 0.32499999999999996, 0.6079999999999999, 1], "metallicFactor" : 0, "roughnessFactor" : 0}, "emissiveFactor" : [0, 0, 0], "alphaMode" : "OPAQUE", "doubleSided" : false}, {"name" : "Flora", "pbrMetallicRoughness" : {"baseColorFactor" : [0, 0.32499999999999996, 0.6079999999999999, 1], "metallicFactor" : 0, "roughnessFactor" : 0}, "emissiveFactor" : [0, 0, 0], "alphaMode" : "OPAQUE", "doubleSided" : false}, {"name" : "Kathmandu", "pbrMetallicRoughness" : {"baseColorFactor" : [0, 0.32499999999999996, 0.6079999999999999, 1], "metallicFactor" : 0, "roughnessFactor" : 0}, "emissiveFactor" : [0, 0, 0], "alphaMode" : "OPAQUE", "doubleSided" : false}, {"name" : "Santana", "pbrMetallicRoughness" : {"baseColorFactor" : [0, 0.32499999999999996, 0.6079999999999999, 1], "metallicFactor" : 0, "roughnessFactor" : 0}, "emissiveFactor" : [0, 0, 0], "alphaMode" : "OPAQUE", "doubleSided" : false}, {"name" : "Dust Storm", "pbrMetallicRoughness" : {"baseColorFactor" : [0, 0.32499999999999996, 0.6079999999999999, 1], "metallicFactor" : 0, "roughnessFactor" : 0}, "emissiveFactor" : [0, 0, 0], "alphaMode" : "OPAQUE", "doubleSided" : false}, {"name" : "Veronica", "pbrMetallicRoughness" : {"baseColorFactor" : [0, 0.32499999999999996, 0.6079999999999999, 1], "metallicFactor" : 0, "roughnessFactor" : 0}, "emissiveFactor" : [0, 0, 0], "alphaMode" : "OPAQUE", "doubleSided" : false}, {"name" : "Diesel", "pbrMetallicRoughness" : {"baseColorFactor" : [0, 0.32499999999999996, 0.6079999999999999, 1], "metallicFactor" : 0, "roughnessFactor" : 0}, "emissiveFactor" : [0, 0, 0], "alphaMode" : "OPAQUE", "doubleSided" : false}, {"name" : "Scenario", "pbrMetallicRoughness" : {"baseColorFactor" : [0, 0.32499999999999996, 0.6079999999999999, 1], "metallicFactor" : 0, "roughnessFactor" : 0}, "emissiveFactor" : [0, 0, 0], "alphaMode" : "OPAQUE", "doubleSided" : false}, {"name" : "Light Aroma", "pbrMetallicRoughness" : {"baseColorFactor" : [0, 0.32499999999999996, 0.6079999999999999, 1], "metallicFactor" : 0, "roughnessFactor" : 0}, "emissiveFactor" : [0, 0, 0], "alphaMode" : "OPAQUE", "doubleSided" : false}, {"name" : "Vera", "pbrMetallicRoughness" : {"baseColorFactor" : [0, 0.32499999999999996, 0.6079999999999999, 1], "metallicFactor" : 0, "roughnessFactor" : 0}, "emissiveFactor" : [0, 0, 0], "alphaMode" : "OPAQUE", "doubleSided" : false}, {"name" : "Irish Beauty", "pbrMetallicRoughness" : {"baseColorFactor" : [0, 0.32499999999999996, 0.6079999999999999, 1], "metallicFactor" : 0, "roughnessFactor" : 0}, "emissiveFactor" : [0, 0, 0], "alphaMode" : "OPAQUE", "doubleSided" : false}, {"name" : "Haiti", "pbrMetallicRoughness" : {"baseColorFactor" : [0, 0.32499999999999996, 0.6079999999999999, 1], "metallicFactor" : 0, "roughnessFactor" : 0}, "emissiveFactor" : [0, 0, 0], "alphaMode" : "OPAQUE", "doubleSided" : false}], "meshes" : [{"primitives" : [{"attributes" : {"POSITION" : 1, "NORMAL" : 2}, "indices" : 0, "material" : 0, "mode" : 4}]}, {"primitives" : [{"attributes" : {"POSITION" : 4, "NORMAL" : 5}, "indices" : 3, "material" : 1, "mode" : 4}]}, {"primitives" : [{"attributes" : {"POSITION" : 7, "NORMAL" : 8}, "indices" : 6, "material" : 2, "mode" : 4}]}, {"primitives" : [{"attributes" : {"POSITION" : 10, "NORMAL" : 11}, "indices" : 9, "material" : 3, "mode" : 4}]}, {"primitives" : [{"attributes" : {"POSITION" : 13, "NORMAL" : 14}, "indices" : 12, "material" : 4, "mode" : 4}]}, {"primitives" : [{"attributes" : {"POSITION" : 16, "NORMAL" : 17}, "indices" : 15, "material" : 5, "mode" : 4}]}, {"primitives" : [{"attributes" : {"POSITION" : 19, "NORMAL" : 20}, "indices" : 18, "material" : 6, "mode" : 4}]}, {"primitives" : [{"attributes" : {"POSITION" : 22, "NORMAL" : 23}, "indices" : 21, "material" : 7, "mode" : 4}]}, {"primitives" : [{"attributes" : {"POSITION" : 25, "NORMAL" : 26}, "indices" : 24, "material" : 8, "mode" : 4}]}, {"primitives" : [{"attributes" : {"POSITION" : 28, "NORMAL" : 29}, "indices" : 27, "material" : 9, "mode" : 4}]}, {"primitives" : [{"attributes" : {"POSITION" : 31, "NORMAL" : 32}, "indices" : 30, "material" : 10, "mode" : 4}]}, {"primitives" : [{"attributes" : {"POSITION" : 34, "NORMAL" : 35}, "indices" : 33, "material" : 11, "mode" : 4}]}], "nodes" : [{"mesh" : 0, "name" : "ID7"}, {"mesh" : 1, "name" : "ID7"}, {"mesh" : 2, "name" : "ID7"}, {"mesh" : 3, "name" : "ID7"}, {"mesh" : 4, "name" : "ID7"}, {"mesh" : 5, "name" : "ID7"}, {"mesh" : 6, "name" : "ID62"}, {"mesh" : 7, "name" : "ID62"}, {"mesh" : 8, "name" : "ID62"}, {"mesh" : 9, "name" : "ID62"}, {"mesh" : 10, "name" : "ID62"}, {"mesh" : 11, "name" : "ID62"}, {"children" : [0, 1, 2, 3, 4, 5, 6, 7, 8, 9, 10, 11], "matrix" : [0.0002, 0, 0, 0, 0, 4.4408920985006264E-20, -0.0002, 0, 0, 0.0002, 4.4408920985006264E-20, 0, 0, 0, 0, 1], "name" : "Project Name (1)"}], "scene" : 0, "scenes" : [{"nodes" : [12]}]}